<svg width="30" height="29" viewBox="0 0 30 29" fill="none" xmlns="http://www.w3.org/2000/svg">
<path d="M14.566 0C6.52139 0 0 6.39239 0 14.2778C0 22.1633 6.52139 28.5557 14.566 28.5557C22.6106 28.5557 29.1319 22.1633 29.1319 14.2778C29.1319 6.39239 22.6106 0 14.566 0ZM21.3175 9.71009C21.0983 11.9678 20.1498 17.4465 19.6671 19.9752C19.463 21.0451 19.0609 21.4039 18.6717 21.4389C17.8259 21.5153 17.1835 20.891 16.3642 20.3646C15.0822 19.5408 14.358 19.0281 13.1135 18.2242C11.6754 17.2953 12.6077 16.7849 13.4273 15.9501C13.6418 15.7318 17.3687 12.4089 17.4409 12.1074C17.4499 12.0697 17.4585 11.929 17.3731 11.855C17.2877 11.7811 17.1622 11.8062 17.0715 11.8263C16.9429 11.8549 14.8949 13.1818 10.9275 15.8069C10.3462 16.1982 9.81968 16.3888 9.34789 16.3788C8.8278 16.3678 7.82739 16.0906 7.08364 15.8536C6.17145 15.563 5.44644 15.4093 5.50958 14.9157C5.54247 14.6585 5.90368 14.3956 6.59322 14.127C10.8395 12.3135 13.671 11.1179 15.0878 10.5402C19.1329 8.89095 19.9734 8.60448 20.5213 8.59492C20.6418 8.59296 20.9112 8.62221 21.0857 8.76101C21.2018 8.85989 21.2758 8.99788 21.293 9.14767C21.3226 9.33366 21.3308 9.52231 21.3175 9.71009Z" fill="#2E323F"/>
</svg>
