<svg width="30" height="29" viewBox="0 0 30 29" fill="none" xmlns="http://www.w3.org/2000/svg">
<path d="M26.2427 2.78061C25.4808 2.12815 22.397 0.0480864 15.5215 0.0202035C15.5215 0.0202035 7.4161 -0.4315 3.46839 2.93676C1.27255 4.97779 0.498611 7.97241 0.414618 11.6808C0.330624 15.3893 0.228631 22.3377 7.4341 24.2226H7.4401L7.4341 27.1001C7.4341 27.1001 7.3861 28.2656 8.21404 28.4998C9.20997 28.7898 9.79792 27.9031 10.7519 26.9495C11.2738 26.4253 11.9938 25.6558 12.5397 25.0702C17.4714 25.455 21.2571 24.5739 21.689 24.4456C22.685 24.1445 28.3186 23.4753 29.2305 16.5269C30.1784 9.3554 28.7745 4.82722 26.2427 2.78061ZM27.0766 16.0027C26.3027 21.8023 21.737 22.1704 20.8971 22.4213C20.5371 22.5273 17.2074 23.2969 13.0257 23.0459C13.0257 23.0459 9.90592 26.5424 8.93399 27.4514C8.61601 27.747 8.26804 27.7191 8.27404 27.1336C8.27404 26.7488 8.29803 22.3544 8.29803 22.3544C8.29203 22.3544 8.29203 22.3544 8.29803 22.3544C2.19049 20.7818 2.55046 14.8651 2.61645 11.7701C2.68245 8.67506 3.3124 6.13771 5.17227 4.43128C8.51402 1.61511 15.3955 2.03335 15.3955 2.03335C21.2091 2.05566 23.9929 3.68402 24.6408 4.23052C26.7827 5.93696 27.8746 10.019 27.0766 16.0027ZM18.7373 11.4968C18.7613 11.9764 17.9873 12.0099 17.9633 11.5303C17.8973 10.3034 17.2794 9.70673 16.0075 9.63981C15.4915 9.61193 15.5395 8.89255 16.0495 8.92043C17.7233 9.00408 18.6533 9.89633 18.7373 11.4968ZM19.9552 12.127C20.0152 9.76249 18.4253 7.91107 15.4075 7.70473C14.8975 7.67128 14.9515 6.9519 15.4615 6.98536C18.9412 7.21957 20.7951 9.44463 20.7291 12.1437C20.7231 12.6233 19.9432 12.601 19.9552 12.127ZM22.775 12.8742C22.781 13.3538 22.001 13.3594 22.001 12.8798C21.965 8.33489 18.7073 5.85889 14.7536 5.831C14.2436 5.82543 14.2436 5.11162 14.7536 5.11162C19.1752 5.13951 22.733 7.97799 22.775 12.8742ZM22.097 18.3449V18.356C21.4491 19.4156 20.2372 20.5866 18.9892 20.213L18.9772 20.1963C17.7113 19.8673 14.7296 18.4397 12.8457 17.0455C11.8738 16.3317 10.9858 15.4896 10.3019 14.681C9.68393 13.9617 9.05998 13.1084 8.45402 12.0824C7.17612 9.93537 6.89414 8.9762 6.89414 8.9762C6.49217 7.81627 7.74608 6.6898 8.89199 6.08753H8.90399C9.45595 5.81985 9.98391 5.90907 10.3379 6.30501C10.3379 6.30501 11.0818 7.13035 11.3998 7.53744C11.6998 7.91665 12.1018 8.52449 12.3117 8.86466C12.6777 9.47251 12.4497 10.0915 12.0898 10.348L11.3698 10.8834C11.0038 11.1566 11.0518 11.6641 11.0518 11.6641C11.0518 11.6641 12.1198 15.4171 16.1095 16.3652C16.1095 16.3652 16.6554 16.4098 16.9494 16.0696L17.5254 15.4004C17.8013 15.0658 18.4673 14.8539 19.1212 15.1941C20.0032 15.6569 21.1251 16.3763 21.869 17.0288C22.289 17.3466 22.385 17.8318 22.097 18.3449Z" fill="#683A5F"/>
</svg>
