<svg width="30" height="29" viewBox="0 0 30 29" fill="none" xmlns="http://www.w3.org/2000/svg">
<path d="M25.4664 4.1495C22.7418 1.4724 19.1133 0 15.2572 0C7.29796 0 0.821305 6.34854 0.821305 14.1504C0.821305 16.6426 1.48458 19.0775 2.74609 21.2255L0.697754 28.5557L8.35139 26.5861C10.4583 27.7143 12.8317 28.3071 15.2507 28.3071H15.2572C23.21 28.3071 29.8297 21.9586 29.8297 14.1567C29.8297 10.3769 28.191 6.8266 25.4664 4.1495ZM15.2572 25.9232C13.0983 25.9232 10.985 25.3559 9.14472 24.2851L8.70904 24.0301L4.17018 25.1966L5.37967 20.8559L5.09356 20.4097C3.89056 18.5357 3.2598 16.3749 3.2598 14.1504C3.2598 7.66797 8.64401 2.39026 15.2637 2.39026C18.4695 2.39026 21.4803 3.61408 23.7432 5.83862C26.0061 8.06316 27.3977 11.0143 27.3912 14.1567C27.3912 20.6455 21.8704 25.9232 15.2572 25.9232ZM21.8379 17.1143C21.4803 16.9358 19.705 16.0817 19.3734 15.967C19.0418 15.8459 18.8012 15.7885 18.5606 16.1454C18.32 16.5024 17.6307 17.2928 17.4161 17.535C17.208 17.7708 16.9934 17.8027 16.6358 17.6242C14.5159 16.5852 13.1243 15.7694 11.7263 13.4174C11.3556 12.7927 12.0969 12.8373 12.7862 11.486C12.9033 11.2502 12.8447 11.0462 12.7537 10.8677C12.6627 10.6893 11.9409 8.94915 11.6417 8.24163C11.3491 7.55324 11.05 7.64885 10.8289 7.6361C10.6208 7.62335 10.3802 7.62335 10.1396 7.62335C9.89903 7.62335 9.50887 7.71259 9.17723 8.06316C8.84559 8.4201 7.91571 9.27423 7.91571 11.0143C7.91571 12.7545 9.20974 14.4372 9.38532 14.673C9.56739 14.9089 11.9279 18.4783 15.5498 20.0145C17.8388 20.9833 18.7362 21.0662 19.8806 20.9005C20.5764 20.7985 22.0135 20.0464 22.3126 19.2177C22.6117 18.3891 22.6117 17.6816 22.5207 17.535C22.4362 17.3756 22.1956 17.2864 21.8379 17.1143Z" fill="#683A5F"/>
</svg>
