<svg width="51" height="25" viewBox="0 0 51 25" fill="none" xmlns="http://www.w3.org/2000/svg">
<path d="M50.4157 10.9414L50.4139 10.9395L40.0043 0.580118C39.2245 -0.195938 37.9631 -0.19305 37.1869 0.586891C36.4107 1.36673 36.4137 2.62809 37.1935 3.40424L44.1825 10.3594H1.99219C0.891902 10.3594 0 11.2513 0 12.3515C0 13.4518 0.891902 14.3437 1.99219 14.3437H44.1824L37.1936 21.2989C36.4138 22.075 36.4108 23.3364 37.187 24.1162C37.9632 24.8962 39.2247 24.8989 40.0044 24.123L50.414 13.7636L50.4158 13.7617C51.196 12.983 51.1935 11.7175 50.4157 10.9414Z" fill="#683A5F"/>
</svg>
