<svg width="68" height="74" viewBox="0 0 68 74" fill="none" xmlns="http://www.w3.org/2000/svg">
<path d="M56.9846 70.4084C56.7626 69.9889 56.6535 69.5301 56.6714 69.091C56.6893 68.6519 56.8334 68.2527 57.085 67.9448C60.3838 63.8924 62.5924 58.8888 63.5345 53.3331C63.5814 53.0553 63.6819 52.8003 63.83 52.5825C63.9781 52.3648 64.1711 52.1886 64.3979 52.064C64.6246 51.9394 64.8808 51.8688 65.1516 51.8564C65.4225 51.8439 65.7028 51.8898 65.9765 51.9913C66.2503 52.0929 66.5121 52.2481 66.747 52.4482C66.9819 52.6483 67.1854 52.8894 67.3457 53.1576C67.5061 53.4258 67.6202 53.7159 67.6816 54.0114C67.743 54.3069 67.7504 54.6019 67.7034 54.8796C66.6489 61.0974 64.1769 66.6972 60.4845 71.2322C60.2789 71.4838 60.0082 71.6658 59.6964 71.7623C59.3845 71.8587 59.0408 71.8667 58.6955 71.7854C58.3501 71.7041 58.0136 71.5361 57.7153 71.296C57.4171 71.056 57.1662 70.7512 56.9846 70.4084ZM4.05995 9.36233C3.79971 8.8689 3.6969 8.32376 3.76953 7.82254C3.84216 7.32131 4.08561 6.89599 4.45717 6.62115C9.6917 2.7461 16.0663 0.629045 22.932 0.485496C23.4819 0.474678 24.0533 0.70155 24.5205 1.1162C24.9876 1.53085 25.3123 2.09932 25.4231 2.69655C25.5338 3.29377 25.4216 3.87083 25.111 4.30078C24.8005 4.73074 24.3171 4.97836 23.7672 4.98918C17.6351 5.11799 11.9419 7.00954 7.26704 10.4712C7.03608 10.6421 6.76295 10.7493 6.46684 10.7852C6.17075 10.8212 5.85887 10.785 5.55317 10.6793C5.24746 10.5736 4.95535 10.4009 4.69737 10.1734C4.43939 9.94587 4.22181 9.66902 4.05995 9.36233ZM5.30493 26.3307C5.30215 26.3641 4.63557 30.5266 3.96721 32.3796C1.97077 37.913 -4.10234 54.754 9.56965 66.8406C14.7532 71.4235 19.3568 73.6391 23.6444 73.6136C28.8345 73.5832 33.29 71.4212 36.1895 67.526L51.9688 46.0628C52.1981 45.7567 52.3588 45.3933 52.4416 44.9937C52.5245 44.5941 52.5278 44.1661 52.4514 43.7347C52.3774 43.3032 52.225 42.8763 52.0032 42.4787C51.7814 42.0811 51.4946 41.7206 51.1593 41.4181C50.8253 41.1139 50.4491 40.8734 50.0525 40.7106C49.6559 40.5477 49.2468 40.4657 48.8488 40.4694C48.4505 40.4708 48.0707 40.5577 47.7316 40.7252C47.3925 40.8926 47.1008 41.1373 46.8733 41.445L37.961 53.0976C37.7559 53.3447 37.4529 53.4789 37.1155 53.4719C36.7781 53.4648 36.4326 53.3172 36.1513 53.06C35.87 52.8027 35.6749 52.4557 35.6068 52.0918C35.5386 51.7279 35.6028 51.3753 35.7859 51.108L48.9891 33.3681C49.4124 32.7976 49.5716 32.0274 49.432 31.2264C49.2923 30.4253 48.8651 29.659 48.2441 29.0954L47.8368 28.7263C47.5295 28.4464 47.1834 28.2252 46.8186 28.0754C46.4538 27.9257 46.0774 27.8503 45.7113 27.8537C45.0659 27.8557 44.4827 28.1018 44.0624 28.5495L31.8416 44.9678C31.7438 45.0994 31.6187 45.204 31.4735 45.2758C31.3282 45.3476 31.1656 45.3852 30.9951 45.3863C30.8245 45.3875 30.6492 45.3522 30.4793 45.2825C30.3094 45.2128 30.1481 45.1101 30.0047 44.9802C29.8612 44.8503 29.7385 44.6958 29.6434 44.5255C29.5484 44.3551 29.4828 44.1723 29.4506 43.9875C29.4183 43.8026 29.42 43.6194 29.4555 43.4482C29.491 43.2769 29.5596 43.1211 29.6574 42.9896L44.7198 22.7561C45.1467 22.1825 45.3043 21.4221 45.1639 20.6151C45.0236 19.8082 44.6013 19.0518 43.9753 18.4842L43.5679 18.1151C42.942 17.5475 42.1872 17.238 41.4425 17.2426C40.6977 17.2471 40.0528 17.5661 39.6252 18.14L25.1893 37.6574C25.0915 37.7889 24.9664 37.8935 24.8211 37.9652C24.6758 38.037 24.5133 38.0745 24.3427 38.0756C24.1722 38.0767 23.9969 38.0413 23.827 37.9716C23.6571 37.9019 23.4959 37.7992 23.3525 37.6692C23.2091 37.5393 23.0864 37.3848 22.9914 37.2145C22.8964 37.0441 22.8309 36.8613 22.7987 36.6765C22.7665 36.4917 22.7683 36.3084 22.8038 36.1373C22.8393 35.9661 22.908 35.8103 23.0058 35.6789L33.8896 21.0556C34.3164 20.482 34.4747 19.7212 34.3344 18.9143C34.1941 18.1073 33.7717 17.3509 33.1453 16.7825L32.7384 16.4142C32.1113 15.8461 31.3565 15.5366 30.6118 15.5412C29.867 15.5457 29.2221 15.8647 28.7945 16.4386L15.5672 34.2101L15.0975 42.4312C15.0751 42.7918 14.9157 43.1022 14.6543 43.2945C14.3928 43.4868 14.0505 43.5454 13.702 43.4576C13.3535 43.3699 13.0271 43.1428 12.7941 42.8259C12.561 42.5091 12.4403 42.1282 12.4581 41.7664L13.2102 28.6112C13.2606 28.0708 13.2063 27.5053 13.0504 26.9475C12.8945 26.3898 12.6402 25.8509 12.3022 25.362C11.9684 24.8784 11.5585 24.4538 11.0962 24.1128C10.6338 23.7718 10.1282 23.5211 9.60859 23.3753C9.08934 23.2264 8.56586 23.1851 8.06846 23.2538C7.57106 23.3224 7.10962 23.4997 6.71086 23.7753C6.30984 24.0486 5.97909 24.4152 5.73776 24.8538C5.49643 25.2924 5.34931 25.7944 5.30493 26.3307Z" fill="#683A5F"/>
</svg>
