<svg width="81" height="89" viewBox="0 0 81 89" fill="none" xmlns="http://www.w3.org/2000/svg">
<path d="M26.8863 55.4994L15.2473 61.2266C14.1609 61.7612 13.7274 63.0346 14.262 64.121L25.7164 87.399C26.251 88.4854 27.5244 88.9189 28.6108 88.3843L40.2498 82.6571C41.3362 82.1225 41.7697 80.8491 41.2351 79.7627L29.7807 56.4847C29.2461 55.3983 27.9728 54.9648 26.8863 55.4994ZM26.794 70.002C25.7076 70.5366 24.4343 70.1032 23.8997 69.0167C23.3651 67.9303 23.7985 66.657 24.885 66.1224C25.9714 65.5878 27.2447 66.0212 27.7793 67.1077C28.3139 68.1941 27.8805 69.4674 26.794 70.002ZM53.7368 23.5024C53.5379 23.4694 53.3524 23.3807 53.2019 23.2465C53.0513 23.1124 52.9419 22.9383 52.8862 22.7445L50.9137 16.0771L44.3018 13.9209C43.9155 13.7957 43.6268 13.4531 43.5689 13.0485C43.5397 12.8487 43.5674 12.6447 43.6487 12.4599C43.73 12.275 43.8617 12.1168 44.0287 12.0033L49.7588 8.06844L49.768 1.1153C49.768 0.698961 50.1015 0.38659 50.414 0.232784C50.7266 0.0789765 51.1775 0.00539971 51.5044 0.25861L57.0219 4.49448L63.6356 2.35537C64.031 2.22665 64.4553 2.33319 64.7451 2.63057C64.8848 2.77493 64.9815 2.95533 65.0245 3.15155C65.0674 3.34778 65.0548 3.55209 64.9882 3.74158L62.6624 10.2957L66.7415 15.9266C66.8611 16.0889 66.9323 16.2818 66.9467 16.483C66.9611 16.6841 66.9182 16.8852 66.823 17.063C66.6348 17.4186 66.2578 17.6511 65.843 17.6393L58.8892 17.4563L54.7943 23.0738C54.5511 23.4084 54.1451 23.5709 53.7368 23.5024ZM32.4015 34.0033C31.9902 33.9328 31.6635 33.6417 31.548 33.2444L29.5756 26.5769L22.9637 24.4208C22.5774 24.2955 22.2887 23.9529 22.2308 23.5484C22.2016 23.3485 22.2292 23.1446 22.3105 22.9597C22.3919 22.7749 22.5236 22.6167 22.6906 22.5032L28.4206 18.5683L28.4299 11.6152C28.4298 11.1988 28.7633 10.8864 29.0759 10.7326C29.3885 10.5788 29.8393 10.5053 30.1663 10.7585L35.6838 14.9943L42.2975 12.8552C42.6929 12.7265 43.1172 12.833 43.407 13.1304C43.5467 13.2748 43.6434 13.4552 43.6863 13.6514C43.7293 13.8476 43.7167 14.0519 43.6501 14.2414L41.3243 20.7956L45.4034 26.4264C45.523 26.5888 45.5941 26.7817 45.6085 26.9828C45.623 27.184 45.5801 27.3851 45.4849 27.5628C45.2967 27.9184 44.9197 28.151 44.5049 28.1392L37.5511 27.9561L33.4562 33.5737C33.3378 33.7363 33.1763 33.8628 32.99 33.9387C32.8037 34.0146 32.5999 34.037 32.4015 34.0033ZM11.0606 44.5021C10.8617 44.4691 10.6762 44.3804 10.5256 44.2462C10.3751 44.1121 10.2656 43.938 10.2099 43.7442L8.23744 37.0768L1.62554 34.9206C1.23926 34.7954 0.950541 34.4528 0.892653 34.0482C0.863464 33.8484 0.891107 33.6444 0.97242 33.4596C1.05373 33.2747 1.18543 33.1165 1.35245 33.003L7.08252 29.0682L7.09196 22.1151C7.09171 21.6987 7.42521 21.3863 7.73778 21.2325C8.05035 21.0787 8.50119 21.0051 8.82819 21.2583L14.3456 25.4942L20.9593 23.3551C21.3548 23.2263 21.7791 23.3329 22.0689 23.6303C22.2085 23.7746 22.3053 23.955 22.3482 24.1513C22.3911 24.3475 22.3786 24.5518 22.312 24.7413L19.9862 31.2955L24.0653 36.9263C24.1849 37.0886 24.256 37.2816 24.2704 37.4827C24.2848 37.6838 24.242 37.8849 24.1467 38.0627C23.9585 38.4183 23.5816 38.6508 23.1668 38.639L16.2129 38.456L12.118 44.0735C11.8748 44.4081 11.4689 44.5706 11.0606 44.5021ZM78.5974 49.0411C79.1934 49.5668 79.7114 50.2277 80.0932 51.0037C81.4105 53.6806 80.6945 56.8282 78.5358 58.7094C79.1319 59.2352 79.6499 59.8961 80.0317 60.6721C81.6163 63.8923 80.296 67.7706 77.0758 69.3551L67.0273 74.2997C63.0314 76.266 58.35 76.5457 54.1242 75.1068C50.9595 74.062 47.4579 74.2911 44.5095 75.7419L44.1602 75.9138L34.6149 56.5155L36.5935 55.5419C40.0856 53.727 43.139 51.0197 45.3838 47.7469C50.596 40.0257 49.5459 37.8917 47.4842 33.7019C47.2361 33.1975 47.1055 32.4425 47.3218 31.9024C47.48 31.3428 47.8125 30.7453 48.3168 30.4971C52.4293 28.4735 56.7202 28.7716 59.8172 31.3437C62.6643 33.7017 63.9736 37.6356 63.6348 42.2358L71.4718 38.3795C74.6921 36.7949 78.5703 38.1151 80.1549 41.3354C81.472 44.0123 80.756 47.1598 78.5974 49.0411Z" fill="#683A5F"/>
</svg>
